HIERARCHY
ROOT reference
{
  OFFSET 0 0 0
  CHANNELS 6 Xposition Yposition Zposition Zrotation Xrotation Yrotation
  JOINT Hips
  {
    OFFSET 28.3587 88.7801 -18.639
    CHANNELS 6 Xposition Yposition Zposition Zrotation Xrotation Yrotation
    JOINT RightUpLeg
    {
      OFFSET -10.0051 -1.61895 0.0117241
      CHANNELS 6 Xposition Yposition Zposition Zrotation Xrotation Yrotation
      JOINT RightLeg
      {
        OFFSET 0.0614837 -38.38 0.0511171
        CHANNELS 6 Xposition Yposition Zposition Zrotation Xrotation Yrotation
        JOINT RightFoot
        {
          OFFSET 0.0948713 -38.16 0.619621
          CHANNELS 6 Xposition Yposition Zposition Zrotation Xrotation Yrotation
          End Site
          {
            OFFSET 0 -8 17.85
          }
        }
      }
    }
    JOINT LeftUpLeg
    {
      OFFSET 9.97755 -1.62837 0.0626144
      CHANNELS 6 Xposition Yposition Zposition Zrotation Xrotation Yrotation
      JOINT LeftLeg
      {
        OFFSET -0.0251408 -40.0033 0.0873356
        CHANNELS 6 Xposition Yposition Zposition Zrotation Xrotation Yrotation
        JOINT LeftFoot
        {
          OFFSET -0.232609 -37.8237 -0.200824
          CHANNELS 6 Xposition Yposition Zposition Zrotation Xrotation Yrotation
          End Site
          {
            OFFSET 0 -8 17.85
          }
        }
      }
    }
    JOINT Spine
    {
      OFFSET 0.0146971 16.23 0.0298895
      CHANNELS 6 Xposition Yposition Zposition Zrotation Xrotation Yrotation
      JOINT Spine1
      {
        OFFSET 0.00460961 9.92001 0.0176009
        CHANNELS 6 Xposition Yposition Zposition Zrotation Xrotation Yrotation
        JOINT Spine2
        {
          OFFSET 0.00751003 10.33 0.0100602
          CHANNELS 6 Xposition Yposition Zposition Zrotation Xrotation Yrotation
          JOINT Spine3
          {
            OFFSET 0.00765088 9.92 0.00605236
            CHANNELS 6 Xposition Yposition Zposition Zrotation Xrotation Yrotation
            JOINT Neck
            {
              OFFSET 0.0316523 10.5933 0.112077
              CHANNELS 6 Xposition Yposition Zposition Zrotation Xrotation Yrotation
              JOINT Head
              {
                OFFSET -0.0205997 12.5167 0.136747
                CHANNELS 6 Xposition Yposition Zposition Zrotation Xrotation Yrotation
                End Site
                {
                  OFFSET 0 16.5 0
                }
              }
            }
            JOINT RightShoulder
            {
              OFFSET -3.4196 7.05993 0.0646645
              CHANNELS 6 Xposition Yposition Zposition Zrotation Xrotation Yrotation
              JOINT RightArm
              {
                OFFSET -13.5941 -0.00774677 0.0407273
                CHANNELS 6 Xposition Yposition Zposition Zrotation Xrotation Yrotation
                JOINT RightForeArm
                {
                  OFFSET -24.5195 -0.107943 0.00753312
                  CHANNELS 6 Xposition Yposition Zposition Zrotation Xrotation Yrotation
                  JOINT RightHand
                  {
                    OFFSET -25.49 -0.0668619 0.0413232
                    CHANNELS 6 Xposition Yposition Zposition Zrotation Xrotation Yrotation
                    JOINT RightHandThumb1
                    {
                      OFFSET -2.7 0.21 3.39
                      CHANNELS 6 Xposition Yposition Zposition Zrotation Xrotation Yrotation
                      JOINT RightHandThumb2
                      {
                        OFFSET -4 0 0
                        CHANNELS 6 Xposition Yposition Zposition Zrotation Xrotation Yrotation
                        JOINT RightHandThumb3
                        {
                          OFFSET -2.78 0 0
                          CHANNELS 6 Xposition Yposition Zposition Zrotation Xrotation Yrotation
                          End Site
                          {
                            OFFSET -2.382 0 0
                          }
                        }
                      }
                    }
                    JOINT RightInHandIndex
                    {
                      OFFSET -3.5 0.55 2.15
                      CHANNELS 6 Xposition Yposition Zposition Zrotation Xrotation Yrotation
                      JOINT RightHandIndex1
                      {
                        OFFSET -5.66 -0.1 1.08
                        CHANNELS 6 Xposition Yposition Zposition Zrotation Xrotation Yrotation
                        JOINT RightHandIndex2
                        {
                          OFFSET -3.93 0 0
                          CHANNELS 6 Xposition Yposition Zposition Zrotation Xrotation Yrotation
                          JOINT RightHandIndex3
                          {
                            OFFSET -2.23 0 0
                            CHANNELS 6 Xposition Yposition Zposition Zrotation Xrotation Yrotation
                            End Site
                            {
                              OFFSET -1.96 0 0
                            }
                          }
                        }
                      }
                    }
                    JOINT RightInHandMiddle
                    {
                      OFFSET -3.67 0.56 0.82
                      CHANNELS 6 Xposition Yposition Zposition Zrotation Xrotation Yrotation
                      JOINT RightHandMiddle1
                      {
                        OFFSET -5.62 -0.09 0.34
                        CHANNELS 6 Xposition Yposition Zposition Zrotation Xrotation Yrotation
                        JOINT RightHandMiddle2
                        {
                          OFFSET -4.29 0 0
                          CHANNELS 6 Xposition Yposition Zposition Zrotation Xrotation Yrotation
                          JOINT RightHandMiddle3
                          {
                            OFFSET -2.69 0 0
                            CHANNELS 6 Xposition Yposition Zposition Zrotation Xrotation Yrotation
                            End Site
                            {
                              OFFSET -2.144 0 0
                            }
                          }
                        }
                      }
                    }
                    JOINT RightInHandRing
                    {
                      OFFSET -3.65 0.58 -0.14
                      CHANNELS 6 Xposition Yposition Zposition Zrotation Xrotation Yrotation
                      JOINT RightHandRing1
                      {
                        OFFSET -5.03 -0.02 -0.52
                        CHANNELS 6 Xposition Yposition Zposition Zrotation Xrotation Yrotation
                        JOINT RightHandRing2
                        {
                          OFFSET -3.74 0 0
                          CHANNELS 6 Xposition Yposition Zposition Zrotation Xrotation Yrotation
                          JOINT RightHandRing3
                          {
                            OFFSET -2.59 0 0
                            CHANNELS 6 Xposition Yposition Zposition Zrotation Xrotation Yrotation
                            End Site
                            {
                              OFFSET -2.016 0 0
                            }
                          }
                        }
                      }
                    }
                    JOINT RightInHandPinky
                    {
                      OFFSET -3.43 0.51 -1.3
                      CHANNELS 6 Xposition Yposition Zposition Zrotation Xrotation Yrotation
                      JOINT RightHandPinky1
                      {
                        OFFSET -4.5 -0.02 -1.18
                        CHANNELS 6 Xposition Yposition Zposition Zrotation Xrotation Yrotation
                        JOINT RightHandPinky2
                        {
                          OFFSET -2.99 0 0
                          CHANNELS 6 Xposition Yposition Zposition Zrotation Xrotation Yrotation
                          JOINT RightHandPinky3
                          {
                            OFFSET -1.89 0 0
                            CHANNELS 6 Xposition Yposition Zposition Zrotation Xrotation Yrotation
                            End Site
                            {
                              OFFSET -1.786 0 0
                            }
                          }
                        }
                      }
                    }
                  }
                }
              }
            }
            JOINT LeftShoulder
            {
              OFFSET 3.39166 7.0672 -0.00873036
              CHANNELS 6 Xposition Yposition Zposition Zrotation Xrotation Yrotation
              JOINT LeftArm
              {
                OFFSET 13.5663 -0.0165596 -0.0170592
                CHANNELS 6 Xposition Yposition Zposition Zrotation Xrotation Yrotation
                JOINT LeftForeArm
                {
                  OFFSET 24.5292 0.0210254 -0.012368
                  CHANNELS 6 Xposition Yposition Zposition Zrotation Xrotation Yrotation
                  JOINT LeftHand
                  {
                    OFFSET 25.48 0.00127207 -0.117709
                    CHANNELS 6 Xposition Yposition Zposition Zrotation Xrotation Yrotation
                    JOINT LeftHandThumb1
                    {
                      OFFSET 2.7 0.21 3.39
                      CHANNELS 6 Xposition Yposition Zposition Zrotation Xrotation Yrotation
                      JOINT LeftHandThumb2
                      {
                        OFFSET 4 0 0
                        CHANNELS 6 Xposition Yposition Zposition Zrotation Xrotation Yrotation
                        JOINT LeftHandThumb3
                        {
                          OFFSET 2.78 0 0
                          CHANNELS 6 Xposition Yposition Zposition Zrotation Xrotation Yrotation
                          End Site
                          {
                            OFFSET 2.382 0 0
                          }
                        }
                      }
                    }
                    JOINT LeftInHandIndex
                    {
                      OFFSET 3.5 0.55 2.15
                      CHANNELS 6 Xposition Yposition Zposition Zrotation Xrotation Yrotation
                      JOINT LeftHandIndex1
                      {
                        OFFSET 5.66 -0.1 1.08
                        CHANNELS 6 Xposition Yposition Zposition Zrotation Xrotation Yrotation
                        JOINT LeftHandIndex2
                        {
                          OFFSET 3.93 0 0
                          CHANNELS 6 Xposition Yposition Zposition Zrotation Xrotation Yrotation
                          JOINT LeftHandIndex3
                          {
                            OFFSET 2.23 0 0
                            CHANNELS 6 Xposition Yposition Zposition Zrotation Xrotation Yrotation
                            End Site
                            {
                              OFFSET 1.96 0 0
                            }
                          }
                        }
                      }
                    }
                    JOINT LeftInHandMiddle
                    {
                      OFFSET 3.67 0.56 0.82
                      CHANNELS 6 Xposition Yposition Zposition Zrotation Xrotation Yrotation
                      JOINT LeftHandMiddle1
                      {
                        OFFSET 5.62 -0.09 0.34
                        CHANNELS 6 Xposition Yposition Zposition Zrotation Xrotation Yrotation
                        JOINT LeftHandMiddle2
                        {
                          OFFSET 4.29 0 0
                          CHANNELS 6 Xposition Yposition Zposition Zrotation Xrotation Yrotation
                          JOINT LeftHandMiddle3
                          {
                            OFFSET 2.69 0 0
                            CHANNELS 6 Xposition Yposition Zposition Zrotation Xrotation Yrotation
                            End Site
                            {
                              OFFSET 2.144 0 0
                            }
                          }
                        }
                      }
                    }
                    JOINT LeftInHandRing
                    {
                      OFFSET 3.65 0.58 -0.14
                      CHANNELS 6 Xposition Yposition Zposition Zrotation Xrotation Yrotation
                      JOINT LeftHandRing1
                      {
                        OFFSET 5.03 -0.02 -0.52
                        CHANNELS 6 Xposition Yposition Zposition Zrotation Xrotation Yrotation
                        JOINT LeftHandRing2
                        {
                          OFFSET 3.74 0 0
                          CHANNELS 6 Xposition Yposition Zposition Zrotation Xrotation Yrotation
                          JOINT LeftHandRing3
                          {
                            OFFSET 2.59 0 0
                            CHANNELS 6 Xposition Yposition Zposition Zrotation Xrotation Yrotation
                            End Site
                            {
                              OFFSET 2.016 0 0
                            }
                          }
                        }
                      }
                    }
                    JOINT LeftInHandPinky
                    {
                      OFFSET 3.43 0.51 -1.3
                      CHANNELS 6 Xposition Yposition Zposition Zrotation Xrotation Yrotation
                      JOINT LeftHandPinky1
                      {
                        OFFSET 4.5 -0.02 -1.18
                        CHANNELS 6 Xposition Yposition Zposition Zrotation Xrotation Yrotation
                        JOINT LeftHandPinky2
                        {
                          OFFSET 2.99 0 0
                          CHANNELS 6 Xposition Yposition Zposition Zrotation Xrotation Yrotation
                          JOINT LeftHandPinky3
                          {
                            OFFSET 1.89 0 0
                            CHANNELS 6 Xposition Yposition Zposition Zrotation Xrotation Yrotation
                            End Site
                            {
                              OFFSET 1.786 0 0
                            }
                          }
                        }
                      }
                    }
                  }
                }
              }
            }
          }
        }
      }
    }
  }
}
MOTION
Frames:	3
Frame Time:	0.0166667
0 0 0 0 0 -0 28.3094 88.7499 -20.0951 -0.891993 2.15869 13.1862 -9.96716 -1.61305 -0.0293954 2.78162 -2.61407 -31.7468 0.0617747 -38.3776 0.00130097 -6.0286 -3.31498 2.79701 0.712119 -38.1368 0.750364 3.39003 2.94219 24.8414 9.98867 -1.62515 0.0468579 -3.75539 -3.29993 -11.4661 -0.0123103 -39.9957 0.0261095 5.46096 3.0056 20.9299 -0.424709 -37.8582 -0.224532 0.494693 0.242025 5.41456 -0.00942989 16.22 0.113019 -0.925275 4.00564 -9.7171 -0.000537191 9.9197 0.0596552 -0.299355 0.951245 -2.46277 0.00626533 10.33 0.016057 -0.471882 1.544 -4.07308 -0.00799173 9.92 0.045335 0.339756 0.773053 0.697064 -0.0270762 10.6084 0.00845511 0.339621 0.773112 0.707065 -0.0486147 12.4962 0.0176361 4.72261 13.9776 13.3815 -3.42114 7.0441 0.0674565 8.489 -1.6446 -11.8336 -13.6002 -0.0187967 0.0373905 69.8671 14.5785 16.7128 -24.4853 -0.143778 0.0492501 -36.6188 40.9055 53.0664 -25.4908 -0.0215139 0.118664 -3.22943 11.6319 -12.4381 -2.7 0.21 3.39 12.5528 16.935 52.6054 -4 1.42109e-014 7.10543e-015 -6.9214 1.17566 -9.62579 -2.78 -7.10543e-015 0 -2.00839e-014 3.18055e-015 -47.5481 -3.5 0.55 2.15 -6.36111e-015 3.18055e-015 3.18055e-015 -5.66 -0.1 1.08 17.4118 4.58419 14.3033 -3.93 1.42109e-014 3.55271e-015 42.5132 1.59028e-015 -6.36111e-015 -2.23 0 0 21.2518 1.59028e-015 2.38542e-015 -3.67 0.56 0.82 -6.36111e-015 3.18055e-015 3.18055e-015 -5.62 -0.09 0.34 28.2685 0 -7.15625e-015 -4.29 0 -8.88178e-016 28.2685 3.18055e-015 -1.59028e-015 -2.69 -1.77636e-015 0 28.2685 6.36111e-015 1.59028e-015 -3.65 0.58 -0.14 -6.36111e-015 3.18055e-015 3.18055e-015 -5.03 -0.02 -0.52 11.7443 -3.12179 -14.6846 -3.74 7.10543e-015 0 12.1468 0 -7.15625e-015 -2.59 -7.10543e-015 0 12.1468 -9.54166e-015 -5.31749e-015 -3.43 0.51 -1.3 -6.36111e-015 3.18055e-015 3.18055e-015 -4.5 -0.02 -1.18 13.6286 -6.27021 -24.25 -2.99 -1.42109e-014 1.06581e-014 14.977 3.18055e-015 -6.55989e-015 -1.89 7.10543e-015 -7.10543e-015 14.977 3.18055e-015 -7.15625e-015 3.38201 7.06304 0.00748684 0.466839 -2.42071 -2.1679 13.5908 0.0714931 0.131484 -65.3662 5.13898 -31.2619 24.8124 -0.116034 0.0307191 63.2405 -3.20482 -86.9167 25.3742 -0.420399 -0.0910098 18.3854 4.71906 11.1213 2.7 0.21 3.39 -53.4347 -14.9285 10.8175 4 0 0 7.803 -15.4727 117.188 2.78 2.84217e-014 -3.55271e-015 -1.37375e-014 2.49597e-014 -140.256 3.5 0.55 2.15 6.36111e-015 7.95139e-016 -2.38542e-015 5.66 -0.1 1.08 -38.5746 9.48502 -11.6739 3.93 0 -7.10543e-015 -79.0924 -5.40694e-014 5.1684e-014 2.23 0 0 -39.5465 3.18055e-015 -4.77083e-015 3.67 0.56 0.82 6.36111e-015 7.95139e-016 -2.38542e-015 5.62 -0.09 0.34 -50.363 -3.97569e-015 -1.59028e-015 4.29 2.84217e-014 0 -50.363 -1.43125e-014 2.70347e-014 2.69 0 0 -50.363 1.59028e-015 -5.96354e-015 3.65 0.58 -0.14 6.36111e-015 7.95139e-016 -2.38542e-015 5.03 -0.02 -0.52 -65.0388 -13.6549 6.27096 3.74 0 2.22045e-015 -65.7903 6.36111e-015 -1.04859e-014 2.59 0 -2.22045e-016 -65.7903 -7.35503e-015 1.39149e-014 3.43 0.51 -1.3 6.36111e-015 7.95139e-016 -2.38542e-015 4.5 -0.02 -1.18 -34.1792 -14.6796 20.4644 2.99 0 -3.55271e-015 -36.8431 5.56597e-015 -3.49861e-014 1.89 0 7.10543e-015 -36.8431 -3.18055e-015 8.74653e-015 
0 0 0 0 0 -0 28.2968 88.7492 -20.0187 -0.839673 2.27307 13.0119 -9.96959 -1.61376 -0.0288165 2.72352 -2.72762 -31.7147 0.0605113 -38.3786 0.00567959 -6.04212 -3.31529 2.93078 0.727385 -38.1107 0.707364 3.418 2.97221 24.9195 9.9864 -1.62528 0.0474063 -3.82619 -3.40817 -11.2922 -0.018176 -39.9985 0.0292304 5.50174 3.15427 20.8626 -0.402705 -37.8751 -0.259386 0.406399 0.115078 5.52517 -0.00865531 16.2203 0.113679 -0.985347 3.82854 -9.55744 8.4159e-005 9.91989 0.0597966 -0.302213 0.901349 -2.42268 0.00685854 10.33 0.0174798 -0.4879 1.4742 -4.01266 -0.00649243 9.92 0.0472146 0.329807 0.763175 0.716471 -0.0208738 10.6167 -0.00839533 0.329674 0.763232 0.726493 -0.0524203 12.4913 0.00266397 4.53689 13.675 13.6911 -3.41976 7.04356 0.072028 8.5127 -1.5584 -12.0775 -13.6023 -0.0168913 0.0432731 69.8776 14.4224 16.6952 -24.4834 -0.1448 0.0546507 -36.5691 40.7422 53.0362 -25.4924 -0.018007 0.124677 -2.88379 11.3735 -12.657 -2.7 0.21 3.39 12.5498 16.9488 52.634 -4 0 7.10543e-015 -6.91227 1.17676 -9.57701 -2.78 0 0 2.64183e-014 1.11319e-014 -47.7098 -3.5 0.55 2.15 3.18055e-015 -3.18055e-015 -0 -5.66 -0.1 1.08 17.3634 4.5719 14.3032 -3.93 0 0 42.5625 -4.77083e-015 -1.43125e-014 -2.23 1.77636e-015 3.55271e-015 21.2816 0 -3.18055e-015 -3.67 0.56 0.82 3.18055e-015 -3.18055e-015 -0 -5.62 -0.09 0.34 28.4177 -3.18055e-015 -3.18055e-015 -4.29 7.10543e-015 0 28.4177 -6.36111e-015 -3.18055e-015 -2.69 0 0 28.4177 -6.36111e-015 -0 -3.65 0.58 -0.14 3.18055e-015 -3.18055e-015 -0 -5.03 -0.02 -0.52 11.6769 -3.10417 -14.6839 -3.74 7.10543e-015 0 12.077 3.18055e-015 -4.77083e-015 -2.59 0 -3.55271e-015 12.077 -9.54166e-015 -2.43511e-015 -3.43 0.51 -1.3 3.18055e-015 -3.18055e-015 -0 -4.5 -0.02 -1.18 13.4473 -6.18901 -24.2697 -2.99 -7.10543e-015 0 14.7793 6.36111e-015 1.59028e-015 -1.89 0 0 14.7793 -1.27222e-014 1.59028e-015 3.38451 7.06691 0.00605971 0.385656 -1.8884 -2.12143 13.5768 0.0788067 0.146409 -65.0875 4.1906 -29.0747 24.8105 -0.125627 0.056755 62.8638 -5.51769 -88.9797 25.3743 -0.420931 -0.0873486 18.4702 5.29112 11.524 2.7 0.21 3.39 -53.4083 -14.8684 10.7862 4 0 -8.88178e-015 7.74772 -15.4479 117.057 2.78 0 -3.55271e-015 1.08642e-014 -5.86778e-015 -146.747 3.5 0.55 2.15 -1.10348e-032 -7.95139e-016 -7.95139e-016 5.66 -0.1 1.08 -36.4287 9.04094 -12.0197 3.93 2.84217e-014 -7.10543e-015 -74.7549 3.18055e-014 -5.56597e-014 2.23 -1.42109e-014 0 -37.3824 -3.18055e-015 3.18055e-015 3.67 0.56 0.82 -1.10348e-032 -7.95139e-016 -7.95139e-016 5.62 -0.09 0.34 -48.6612 2.18663e-015 -9.54166e-015 4.29 2.84217e-014 0 -48.6612 2.38542e-015 -1.74931e-014 2.69 2.84217e-014 0 -48.6612 -4.77083e-015 5.56597e-015 3.65 0.58 -0.14 -1.10348e-032 -7.95139e-016 -7.95139e-016 5.03 -0.02 -0.52 -65.6145 -13.7152 6.13465 3.74 2.84217e-014 -8.21565e-015 -66.3529 -7.95139e-016 -1.86361e-015 2.59 0 3.9968e-015 -66.3529 1.43125e-014 -1.07344e-014 3.43 0.51 -1.3 -1.10348e-032 -7.95139e-016 -7.95139e-016 4.5 -0.02 -1.18 -33.3885 -14.3924 20.6629 2.99 0 7.10543e-015 -36.0256 2.38542e-015 2.06736e-014 1.89 0 -3.55271e-015 -36.0256 4.77083e-015 -4.77083e-015 
0 0 0 0 0 -0 28.2879 88.7484 -19.9308 -0.806855 2.2836 12.841 -9.97394 -1.61489 -0.0293227 2.71537 -2.75637 -31.6796 0.0571431 -38.3792 0.00831375 -6.07638 -3.31441 3.03598 0.724004 -38.0941 0.639978 3.44868 2.9936 25.0062 9.98389 -1.6255 0.0469605 -3.84355 -3.43266 -11.133 -0.0203065 -40 0.030208 5.50325 3.21369 20.8554 -0.374783 -37.878 -0.310626 0.371489 0.0848356 5.5928 -0.00758222 16.2205 0.112473 -0.982717 3.73046 -9.45488 0.000524586 9.91962 0.0575323 -0.302225 0.882945 -2.39386 0.00748133 10.33 0.0189089 -0.479516 1.43573 -3.96497 -0.00639042 9.92 0.0491205 0.319788 0.742854 0.726877 -0.0118269 10.6192 -0.0277972 0.319663 0.742908 0.736579 -0.0428167 12.4845 -0.0188445 4.37063 13.2824 13.9998 -3.41876 7.04576 0.0752037 8.4725 -1.46379 -12.2407 -13.6037 -0.0156693 0.0472701 69.9539 14.1892 16.7598 -24.4817 -0.146014 0.0572602 -36.4725 40.6282 52.9874 -25.4936 -0.0154594 0.128122 -2.68129 11.391 -12.7478 -2.7 0.21 3.39 12.5275 16.9262 52.6492 -4 -7.10543e-015 0 -6.95315 1.17785 -9.5575 -2.78 7.10543e-015 0 6.49612e-015 1.59028e-015 -47.8481 -3.5 0.55 2.15 9.54166e-015 0 -9.54166e-015 -5.66 -0.1 1.08 17.3354 4.56479 14.3037 -3.93 -7.10543e-015 0 42.5923 -9.54166e-015 -1.66979e-014 -2.23 0 0 21.301 1.59028e-015 -0 -3.67 0.56 0.82 9.54166e-015 0 -9.54166e-015 -5.62 -0.09 0.34 28.5048 0 -5.56597e-015 -4.29 0 4.44089e-016 28.5048 -9.54166e-015 -0 -2.69 0 4.44089e-016 28.5048 0 -0 -3.65 0.58 -0.14 9.54166e-015 0 -9.54166e-015 -5.03 -0.02 -0.52 11.6616 -3.10016 -14.6834 -3.74 -7.10543e-015 0 12.0611 3.18055e-015 7.95139e-016 -2.59 -7.10543e-015 3.55271e-015 12.0611 3.18055e-015 -7.95139e-016 -3.43 0.51 -1.3 9.54166e-015 0 -9.54166e-015 -4.5 -0.02 -1.18 13.3317 -6.13717 -24.2821 -2.99 0 0 14.6532 1.27222e-014 3.67752e-015 -1.89 0 -7.10543e-015 14.6532 -6.36111e-015 5.56597e-015 3.38717 7.07108 0.00537745 0.353175 -1.30259 -2.03241 13.5654 0.0832022 0.154715 -65.2219 3.7654 -28.3872 24.8094 -0.136056 0.0766856 62.4805 -5.89354 -89.9043 25.3781 -0.42735 -0.0834014 18.7681 5.44775 11.5611 2.7 0.21 3.39 -53.4544 -14.8538 10.7584 4 2.84217e-014 5.32907e-015 7.75465 -15.4909 117.015 2.78 2.84217e-014 7.10543e-015 -1.03552e-014 6.17159e-015 -151.589 3.5 0.55 2.15 6.36111e-015 7.95139e-016 7.95139e-016 5.66 -0.1 1.08 -35.5129 8.847 -12.1619 3.93 2.84217e-014 7.10543e-015 -72.915 -3.18055e-014 4.37326e-014 2.23 0 0 -36.4572 6.36111e-015 1.27222e-014 3.67 0.56 0.82 6.36111e-015 7.95139e-016 7.95139e-016 5.62 -0.09 0.34 -44.4441 -4.27387e-015 1.11319e-014 4.29 0 0 -44.4441 -1.66979e-014 3.18055e-014 2.69 -2.84217e-014 0 -44.4441 -3.18055e-015 7.45443e-015 3.65 0.58 -0.14 6.36111e-015 7.95139e-016 7.95139e-016 5.03 -0.02 -0.52 -65.147 -13.658 6.2409 3.74 2.84217e-014 9.76996e-015 -65.8961 1.03368e-014 -1.04362e-014 2.59 0 -7.10543e-015 -65.8961 -9.34288e-015 6.36111e-015 3.43 0.51 -1.3 6.36111e-015 7.95139e-016 7.95139e-016 4.5 -0.02 -1.18 -32.98 -14.2428 20.7639 2.99 2.84217e-014 -3.55271e-015 -35.6025 1.11319e-014 -3.81667e-014 1.89 0 3.55271e-015 -35.6025 6.36111e-015 -1.90833e-014 
